<mxfile host="app.diagrams.net" modified="2023-09-01T17:17:27.948Z" agent="Mozilla/5.0 (Windows NT 10.0; Win64; x64) AppleWebKit/537.36 (KHTML, like Gecko) Chrome/116.0.0.0 Safari/537.36" etag="i4JszvQP56ehFlDMjNfS" version="21.7.2" type="device">
  <diagram id="C5RBs43oDa-KdzZeNtuy" name="Page-1">
    <mxGraphModel dx="1050" dy="613" grid="1" gridSize="10" guides="1" tooltips="1" connect="1" arrows="1" fold="1" page="1" pageScale="1" pageWidth="827" pageHeight="1169" math="0" shadow="0">
      <root>
        <mxCell id="WIyWlLk6GJQsqaUBKTNV-0" />
        <mxCell id="WIyWlLk6GJQsqaUBKTNV-1" parent="WIyWlLk6GJQsqaUBKTNV-0" />
        <mxCell id="WIyWlLk6GJQsqaUBKTNV-2" value="" style="rounded=0;html=1;jettySize=auto;orthogonalLoop=1;fontSize=11;endArrow=classic;endFill=1;endSize=8;strokeWidth=1;shadow=0;labelBackgroundColor=none;edgeStyle=orthogonalEdgeStyle;" parent="WIyWlLk6GJQsqaUBKTNV-1" source="WIyWlLk6GJQsqaUBKTNV-3" target="WIyWlLk6GJQsqaUBKTNV-6" edge="1">
          <mxGeometry relative="1" as="geometry" />
        </mxCell>
        <mxCell id="0Z4JOEmfA5Sq1SAqBZiK-8" value="" style="edgeStyle=orthogonalEdgeStyle;rounded=0;orthogonalLoop=1;jettySize=auto;html=1;" edge="1" parent="WIyWlLk6GJQsqaUBKTNV-1" source="WIyWlLk6GJQsqaUBKTNV-3" target="0Z4JOEmfA5Sq1SAqBZiK-7">
          <mxGeometry relative="1" as="geometry" />
        </mxCell>
        <mxCell id="WIyWlLk6GJQsqaUBKTNV-3" value="대화목록 창" style="rounded=1;whiteSpace=wrap;html=1;fontSize=12;glass=0;strokeWidth=1;shadow=0;" parent="WIyWlLk6GJQsqaUBKTNV-1" vertex="1">
          <mxGeometry x="25" y="150" width="120" height="40" as="geometry" />
        </mxCell>
        <mxCell id="WIyWlLk6GJQsqaUBKTNV-4" value="Yes" style="rounded=0;html=1;jettySize=auto;orthogonalLoop=1;fontSize=11;endArrow=classic;endFill=1;endSize=8;strokeWidth=1;shadow=0;labelBackgroundColor=none;edgeStyle=orthogonalEdgeStyle;entryX=0.5;entryY=0;entryDx=0;entryDy=0;" parent="WIyWlLk6GJQsqaUBKTNV-1" source="WIyWlLk6GJQsqaUBKTNV-6" target="WIyWlLk6GJQsqaUBKTNV-11" edge="1">
          <mxGeometry y="20" relative="1" as="geometry">
            <mxPoint as="offset" />
            <mxPoint x="85" y="360" as="targetPoint" />
            <Array as="points">
              <mxPoint x="85" y="340" />
              <mxPoint x="86" y="340" />
            </Array>
          </mxGeometry>
        </mxCell>
        <mxCell id="WIyWlLk6GJQsqaUBKTNV-6" value="참여방을 &lt;br&gt;눌렀는가?" style="rhombus;whiteSpace=wrap;html=1;shadow=0;fontFamily=Helvetica;fontSize=12;align=center;strokeWidth=1;spacing=6;spacingTop=-4;" parent="WIyWlLk6GJQsqaUBKTNV-1" vertex="1">
          <mxGeometry x="35" y="240" width="100" height="80" as="geometry" />
        </mxCell>
        <mxCell id="WIyWlLk6GJQsqaUBKTNV-11" value="해당 참여방으로이동" style="rounded=1;whiteSpace=wrap;html=1;fontSize=12;glass=0;strokeWidth=1;shadow=0;" parent="WIyWlLk6GJQsqaUBKTNV-1" vertex="1">
          <mxGeometry x="25" y="400" width="120" height="40" as="geometry" />
        </mxCell>
        <mxCell id="0Z4JOEmfA5Sq1SAqBZiK-0" value="&lt;b&gt;&lt;font style=&quot;font-size: 18px;&quot;&gt;대화목록 창&lt;/font&gt;&lt;/b&gt;" style="rounded=0;whiteSpace=wrap;html=1;" vertex="1" parent="WIyWlLk6GJQsqaUBKTNV-1">
          <mxGeometry x="365" y="10" width="120" height="60" as="geometry" />
        </mxCell>
        <mxCell id="0Z4JOEmfA5Sq1SAqBZiK-4" value="" style="endArrow=classic;html=1;rounded=0;exitX=1;exitY=0.5;exitDx=0;exitDy=0;entryX=0;entryY=0.5;entryDx=0;entryDy=0;" edge="1" parent="WIyWlLk6GJQsqaUBKTNV-1" source="WIyWlLk6GJQsqaUBKTNV-6" target="0Z4JOEmfA5Sq1SAqBZiK-5">
          <mxGeometry width="50" height="50" relative="1" as="geometry">
            <mxPoint x="255" y="410" as="sourcePoint" />
            <mxPoint x="185" y="280" as="targetPoint" />
          </mxGeometry>
        </mxCell>
        <mxCell id="0Z4JOEmfA5Sq1SAqBZiK-59" value="no" style="edgeLabel;html=1;align=center;verticalAlign=middle;resizable=0;points=[];" vertex="1" connectable="0" parent="0Z4JOEmfA5Sq1SAqBZiK-4">
          <mxGeometry x="-0.248" relative="1" as="geometry">
            <mxPoint as="offset" />
          </mxGeometry>
        </mxCell>
        <mxCell id="0Z4JOEmfA5Sq1SAqBZiK-5" value="아무일도 &lt;br&gt;일어나지 않음" style="rounded=1;whiteSpace=wrap;html=1;fontSize=12;glass=0;strokeWidth=1;shadow=0;" vertex="1" parent="WIyWlLk6GJQsqaUBKTNV-1">
          <mxGeometry x="185" y="260" width="90" height="40" as="geometry" />
        </mxCell>
        <mxCell id="0Z4JOEmfA5Sq1SAqBZiK-10" value="" style="edgeStyle=orthogonalEdgeStyle;rounded=0;orthogonalLoop=1;jettySize=auto;html=1;" edge="1" parent="WIyWlLk6GJQsqaUBKTNV-1" source="0Z4JOEmfA5Sq1SAqBZiK-7" target="0Z4JOEmfA5Sq1SAqBZiK-9">
          <mxGeometry relative="1" as="geometry" />
        </mxCell>
        <mxCell id="0Z4JOEmfA5Sq1SAqBZiK-11" value="yes" style="edgeLabel;html=1;align=center;verticalAlign=middle;resizable=0;points=[];" vertex="1" connectable="0" parent="0Z4JOEmfA5Sq1SAqBZiK-10">
          <mxGeometry x="0.3111" y="-1" relative="1" as="geometry">
            <mxPoint as="offset" />
          </mxGeometry>
        </mxCell>
        <mxCell id="0Z4JOEmfA5Sq1SAqBZiK-7" value="플러스&lt;br&gt;버튼을 &lt;br&gt;눌렀는가?" style="rhombus;whiteSpace=wrap;html=1;rounded=1;glass=0;strokeWidth=1;shadow=0;" vertex="1" parent="WIyWlLk6GJQsqaUBKTNV-1">
          <mxGeometry x="365" y="130" width="110" height="80" as="geometry" />
        </mxCell>
        <mxCell id="0Z4JOEmfA5Sq1SAqBZiK-43" style="edgeStyle=orthogonalEdgeStyle;rounded=0;orthogonalLoop=1;jettySize=auto;html=1;exitX=0.5;exitY=1;exitDx=0;exitDy=0;entryX=0.5;entryY=0;entryDx=0;entryDy=0;" edge="1" parent="WIyWlLk6GJQsqaUBKTNV-1" source="0Z4JOEmfA5Sq1SAqBZiK-9" target="0Z4JOEmfA5Sq1SAqBZiK-29">
          <mxGeometry relative="1" as="geometry" />
        </mxCell>
        <mxCell id="0Z4JOEmfA5Sq1SAqBZiK-9" value="채널 생성 목록 창&lt;br&gt;열기" style="whiteSpace=wrap;html=1;rounded=1;glass=0;strokeWidth=1;shadow=0;" vertex="1" parent="WIyWlLk6GJQsqaUBKTNV-1">
          <mxGeometry x="360" y="250" width="120" height="60" as="geometry" />
        </mxCell>
        <mxCell id="0Z4JOEmfA5Sq1SAqBZiK-19" value="" style="edgeStyle=orthogonalEdgeStyle;rounded=0;orthogonalLoop=1;jettySize=auto;html=1;" edge="1" parent="WIyWlLk6GJQsqaUBKTNV-1" source="0Z4JOEmfA5Sq1SAqBZiK-16" target="0Z4JOEmfA5Sq1SAqBZiK-18">
          <mxGeometry relative="1" as="geometry" />
        </mxCell>
        <mxCell id="0Z4JOEmfA5Sq1SAqBZiK-16" value="채널명&lt;br&gt;입력" style="shape=parallelogram;perimeter=parallelogramPerimeter;whiteSpace=wrap;html=1;fixedSize=1;rounded=1;glass=0;strokeWidth=1;shadow=0;" vertex="1" parent="WIyWlLk6GJQsqaUBKTNV-1">
          <mxGeometry x="375" y="470" width="90" height="60" as="geometry" />
        </mxCell>
        <mxCell id="0Z4JOEmfA5Sq1SAqBZiK-50" style="edgeStyle=orthogonalEdgeStyle;rounded=0;orthogonalLoop=1;jettySize=auto;html=1;exitX=1;exitY=0.5;exitDx=0;exitDy=0;entryX=0;entryY=0.5;entryDx=0;entryDy=0;" edge="1" parent="WIyWlLk6GJQsqaUBKTNV-1" source="0Z4JOEmfA5Sq1SAqBZiK-18" target="0Z4JOEmfA5Sq1SAqBZiK-37">
          <mxGeometry relative="1" as="geometry" />
        </mxCell>
        <mxCell id="0Z4JOEmfA5Sq1SAqBZiK-52" value="yes" style="edgeLabel;html=1;align=center;verticalAlign=middle;resizable=0;points=[];" vertex="1" connectable="0" parent="0Z4JOEmfA5Sq1SAqBZiK-50">
          <mxGeometry x="0.3354" y="1" relative="1" as="geometry">
            <mxPoint as="offset" />
          </mxGeometry>
        </mxCell>
        <mxCell id="0Z4JOEmfA5Sq1SAqBZiK-53" style="edgeStyle=orthogonalEdgeStyle;rounded=0;orthogonalLoop=1;jettySize=auto;html=1;exitX=0.5;exitY=1;exitDx=0;exitDy=0;entryX=0.5;entryY=0;entryDx=0;entryDy=0;" edge="1" parent="WIyWlLk6GJQsqaUBKTNV-1" source="0Z4JOEmfA5Sq1SAqBZiK-18" target="0Z4JOEmfA5Sq1SAqBZiK-56">
          <mxGeometry relative="1" as="geometry">
            <mxPoint x="420" y="670" as="targetPoint" />
          </mxGeometry>
        </mxCell>
        <mxCell id="0Z4JOEmfA5Sq1SAqBZiK-54" value="no" style="edgeLabel;html=1;align=center;verticalAlign=middle;resizable=0;points=[];" vertex="1" connectable="0" parent="0Z4JOEmfA5Sq1SAqBZiK-53">
          <mxGeometry x="-0.6" y="-3" relative="1" as="geometry">
            <mxPoint as="offset" />
          </mxGeometry>
        </mxCell>
        <mxCell id="0Z4JOEmfA5Sq1SAqBZiK-18" value="공개방?" style="rhombus;whiteSpace=wrap;html=1;rounded=1;glass=0;strokeWidth=1;shadow=0;" vertex="1" parent="WIyWlLk6GJQsqaUBKTNV-1">
          <mxGeometry x="365" y="550" width="110" height="80" as="geometry" />
        </mxCell>
        <mxCell id="0Z4JOEmfA5Sq1SAqBZiK-55" style="edgeStyle=orthogonalEdgeStyle;rounded=0;orthogonalLoop=1;jettySize=auto;html=1;exitX=1;exitY=0.5;exitDx=0;exitDy=0;endArrow=classic;endFill=1;" edge="1" parent="WIyWlLk6GJQsqaUBKTNV-1" source="0Z4JOEmfA5Sq1SAqBZiK-56">
          <mxGeometry relative="1" as="geometry">
            <mxPoint x="535" y="590" as="targetPoint" />
            <mxPoint x="485" y="710" as="sourcePoint" />
          </mxGeometry>
        </mxCell>
        <mxCell id="0Z4JOEmfA5Sq1SAqBZiK-47" style="edgeStyle=orthogonalEdgeStyle;rounded=0;orthogonalLoop=1;jettySize=auto;html=1;exitX=0.5;exitY=1;exitDx=0;exitDy=0;entryX=0.5;entryY=0;entryDx=0;entryDy=0;" edge="1" parent="WIyWlLk6GJQsqaUBKTNV-1" source="0Z4JOEmfA5Sq1SAqBZiK-29" target="0Z4JOEmfA5Sq1SAqBZiK-16">
          <mxGeometry relative="1" as="geometry" />
        </mxCell>
        <mxCell id="0Z4JOEmfA5Sq1SAqBZiK-49" value="no" style="edgeLabel;html=1;align=center;verticalAlign=middle;resizable=0;points=[];" vertex="1" connectable="0" parent="0Z4JOEmfA5Sq1SAqBZiK-47">
          <mxGeometry x="-0.45" y="4" relative="1" as="geometry">
            <mxPoint as="offset" />
          </mxGeometry>
        </mxCell>
        <mxCell id="0Z4JOEmfA5Sq1SAqBZiK-51" style="edgeStyle=orthogonalEdgeStyle;rounded=0;orthogonalLoop=1;jettySize=auto;html=1;exitX=1;exitY=0.5;exitDx=0;exitDy=0;endArrow=classicThin;endFill=1;" edge="1" parent="WIyWlLk6GJQsqaUBKTNV-1" source="0Z4JOEmfA5Sq1SAqBZiK-29">
          <mxGeometry relative="1" as="geometry">
            <mxPoint x="535" y="590" as="targetPoint" />
          </mxGeometry>
        </mxCell>
        <mxCell id="0Z4JOEmfA5Sq1SAqBZiK-29" value="초대방?" style="rhombus;whiteSpace=wrap;html=1;rounded=1;glass=0;strokeWidth=1;shadow=0;" vertex="1" parent="WIyWlLk6GJQsqaUBKTNV-1">
          <mxGeometry x="380" y="350" width="80" height="80" as="geometry" />
        </mxCell>
        <mxCell id="0Z4JOEmfA5Sq1SAqBZiK-39" value="" style="edgeStyle=orthogonalEdgeStyle;rounded=0;orthogonalLoop=1;jettySize=auto;html=1;" edge="1" parent="WIyWlLk6GJQsqaUBKTNV-1" source="0Z4JOEmfA5Sq1SAqBZiK-37" target="0Z4JOEmfA5Sq1SAqBZiK-38">
          <mxGeometry relative="1" as="geometry" />
        </mxCell>
        <mxCell id="0Z4JOEmfA5Sq1SAqBZiK-37" value="확인버튼?" style="rhombus;whiteSpace=wrap;html=1;" vertex="1" parent="WIyWlLk6GJQsqaUBKTNV-1">
          <mxGeometry x="585" y="550" width="80" height="80" as="geometry" />
        </mxCell>
        <mxCell id="0Z4JOEmfA5Sq1SAqBZiK-38" value="생성" style="shape=document;whiteSpace=wrap;html=1;boundedLbl=1;" vertex="1" parent="WIyWlLk6GJQsqaUBKTNV-1">
          <mxGeometry x="682" y="550" width="120" height="80" as="geometry" />
        </mxCell>
        <mxCell id="0Z4JOEmfA5Sq1SAqBZiK-56" value="비밀번호&lt;br&gt;입력" style="rounded=0;whiteSpace=wrap;html=1;" vertex="1" parent="WIyWlLk6GJQsqaUBKTNV-1">
          <mxGeometry x="360" y="680" width="120" height="60" as="geometry" />
        </mxCell>
      </root>
    </mxGraphModel>
  </diagram>
</mxfile>
